# Blender 3.6.13
# www.blender.org
mtllib leaf.mtl
o Cube
v -0.360224 0.711499 -1.429758
v 0.133498 3.354874 -0.385795
v 0.551782 0.269517 -1.089043
v 0.702374 3.778075 -0.145647
v -0.607967 0.507354 1.183203
v -0.589591 1.217031 1.319062
v 0.244283 0.520268 0.592973
v 0.781155 3.126352 0.232779
v -0.378895 2.167412 -1.150735
v 0.545761 2.006413 0.408167
v 0.633523 2.391807 -0.600278
v -0.620915 0.922218 1.309413
v -0.635795 1.430304 1.203286
v 0.482121 0.096501 -0.070142
v 0.822347 3.914032 0.133391
v -0.618752 0.548845 0.783718
v -0.688791 1.046029 1.191473
v 0.695431 1.943902 0.002339
v 0.448934 1.537132 0.524964
v -0.459791 1.582457 -1.422946
v 0.593508 1.338492 -0.865763
v -0.629921 0.825209 1.289628
v -0.696915 0.959100 1.086425
v 0.518271 1.014493 -0.028576
v 0.301808 0.836023 0.615425
v -0.408834 1.084240 -1.444701
v 0.546288 0.760988 -1.018256
v -0.631498 0.654865 1.242592
v -0.685414 0.742647 0.995791
v 0.494947 0.567449 -0.015881
v -0.619900 1.281180 1.286842
v 0.316584 0.325949 0.426597
v 0.655387 1.826951 0.239831
v 0.823226 3.586866 0.189251
v -0.632780 0.456988 1.103857
v -0.665215 0.904854 1.279719
v -0.680350 0.776165 1.243370
v 0.526680 1.228248 0.418530
v -0.671349 0.613937 1.191157
v 0.393342 0.653657 0.418959
v 0.754153 3.925593 -0.054809
v -0.362251 0.726780 -1.321742
v -0.213375 2.164348 -0.479791
v -0.041130 2.699384 -0.069807
v 0.552166 0.233749 -0.659760
v 0.668963 2.312926 -0.321021
v 0.572735 1.222231 -0.499627
v -0.426486 1.691301 -0.957344
v 0.546932 0.709355 -0.585948
v -0.445008 1.133161 -1.254876
v -0.370983 1.576866 1.248345
v 0.045768 0.361454 -1.289071
v -0.154663 0.368082 0.710074
v 0.428698 4.329312 -0.257470
v 0.053529 2.295238 -0.963308
v -0.480930 1.179247 1.308189
v 0.511205 3.893131 0.324597
v -0.028542 0.210809 -0.160891
v 0.030841 1.465726 -1.186059
v -0.433757 1.206139 1.288618
v 0.041656 0.863281 -1.258062
v -0.431744 0.958036 1.257187
v 0.294084 3.212111 0.435439
v -0.109072 0.147530 0.426961
v 0.088951 0.393084 -0.975752
v 0.586770 4.676945 -0.075893
v 0.126139 2.099425 0.729622
v 0.202737 0.307429 -1.208438
v 0.242309 2.272273 -0.800963
v 0.662397 3.379694 -0.240166
v 0.104338 0.206259 -0.083459
v 0.198511 1.369167 -1.089432
v 0.198837 0.793026 -1.172641
v 0.661397 3.632642 0.348773
v 0.026271 0.136553 0.514277
v 0.216519 0.331992 -0.788800
v 0.630901 4.674095 -0.043189
v 0.008519 0.412837 0.666978
v 0.587625 4.215227 -0.188285
v -0.161199 1.629025 1.085927
v -0.083898 1.571524 0.999501
v -0.019423 1.037049 0.859949
v -0.534424 1.873403 0.895883
v 0.515652 0.181352 -0.378037
v 0.762786 2.187947 -0.170590
v 0.542328 1.094112 -0.278428
v 0.534535 0.642789 -0.320354
v 0.797069 3.940649 0.041322
v -0.337288 0.875800 -0.627875
v -0.633022 1.425569 0.826722
v -0.594690 1.301960 0.504927
v -0.512081 1.058685 0.023378
v 0.711142 4.711608 -0.000201
v 0.060820 0.347902 -0.632383
v 0.069675 2.888501 -0.333786
v 0.173925 0.279082 -0.462688
v 0.602256 2.713475 0.364082
v 0.376304 0.284797 -1.135854
v 0.441127 2.285887 -0.682065
v 0.814418 4.283686 0.155604
v 0.259930 0.163162 -0.017087
v 0.406435 1.362257 -0.914042
v 0.386329 0.782876 -1.043658
v 0.828947 3.868225 0.224448
v 0.182904 0.165516 0.526773
v 0.368867 0.270925 -0.687402
v 0.693517 4.596162 0.003498
v 0.144853 0.480836 0.653898
v 0.665120 4.013075 -0.153304
v 0.235574 1.863429 0.678819
v 0.258942 1.650070 0.684052
v 0.177967 0.958602 0.728590
v 0.768450 4.492453 0.105363
v 0.322365 0.217404 -0.380277
v -0.575240 0.519344 1.188531
v 0.114466 3.549919 -0.435498
v -0.591639 0.966990 1.316895
v -0.589095 0.932431 1.310194
v -0.599007 0.774461 1.278914
v -0.559604 1.276153 1.321762
v -0.230844 0.482967 -1.422183
v -0.261275 2.233959 -1.217155
v -0.490987 2.013208 1.040017
v -0.440447 0.419357 0.402114
v -0.261056 1.570779 -1.390073
v -0.249718 0.958293 -1.435762
v -0.565579 1.594827 1.260967
v -0.543706 0.350040 1.011111
v -0.173505 0.508069 -1.265009
v 0.415510 3.728350 -0.193380
v -0.184261 0.587752 -0.839669
v -0.181188 2.456444 0.315164
v -0.502267 1.339202 1.312016
v -0.091871 0.392580 -1.371779
v -0.119084 2.268198 -1.122232
v -0.021859 2.828209 0.469200
v -0.170926 0.240916 -0.132218
v -0.120532 1.522874 -1.304538
v -0.101793 0.910867 -1.360859
v -0.330510 2.267982 1.035122
v -0.299399 0.227674 0.606408
v -0.027202 0.440940 -1.129551
v 0.487631 4.304097 -0.207223
v -0.041207 0.416391 -0.794591
v 0.700940 4.292543 -0.053422
v -0.462628 0.446274 1.108626
v 0.246736 3.967649 -0.366758
v -0.557398 1.039211 1.319497
v -0.543182 1.034034 1.315586
v -0.552091 0.902873 1.297809
v 0.588470 4.301667 0.240665
v 0.788093 4.745417 0.209986
v 0.652052 5.062119 0.112930
v 0.750920 4.361738 0.283416
v 0.783348 4.785146 0.203588
v 0.820518 4.472109 0.247887
v 0.621601 4.944790 0.041737
v 0.637817 4.956005 0.068422
v 0.691930 4.973330 0.148790
v 0.718585 4.487183 0.102440
v 0.796624 4.588085 0.182407
v 0.830023 4.390628 0.215739
v 0.690152 4.802232 0.075901
v 0.735893 4.760094 0.134405
v 0.063162 2.943161 0.230689
v -0.041047 2.811852 0.352197
v -0.599882 1.060162 1.318985
v 0.783042 2.828934 0.225465
v 0.819022 3.305912 0.096190
v -0.661338 1.245489 1.219147
v -0.637687 1.080762 1.295724
v 0.795110 2.994531 0.192821
v 0.738981 3.256033 -0.165137
v -0.242443 2.229357 0.052828
v -0.387395 1.393760 1.267344
v 0.252992 3.745435 -0.446770
v -0.035781 1.820916 0.939205
v 0.478980 3.682777 -0.340525
v -0.612542 1.629599 0.984801
v 0.796773 3.132513 -0.062021
v 0.473239 2.266038 0.462148
v 0.582269 3.530919 -0.290988
v -0.100878 3.079269 -0.652286
v -0.573882 1.088379 1.323925
v -0.500426 1.194364 1.314474
v 0.018862 3.451669 -0.594058
v 0.656652 2.389137 0.317478
v -0.135903 2.615049 -0.658704
v 0.628921 2.875206 -0.388100
v -0.608070 0.992762 1.315617
v 0.775587 2.610054 0.043525
v -0.678407 1.113174 1.219003
v -0.656864 0.989171 1.288306
v 0.771535 2.503384 0.194671
v 0.705551 2.675444 -0.266388
v -0.251089 2.109165 -0.078318
v -0.456446 1.223146 1.300362
v 0.120952 2.986435 -0.691612
v -0.034829 1.757670 0.943269
v 0.355325 3.015157 -0.519175
v -0.641896 1.479271 0.965552
v 0.766491 2.654807 -0.112194
v 0.271863 1.946895 0.640444
v 0.471391 2.960792 -0.477137
v -0.252726 2.579087 -0.913915
v -0.582137 1.024720 1.321162
v -0.533942 1.082820 1.318273
v -0.108138 2.791850 -0.887726
vn 0.4908 -0.5045 0.7104
vn 0.6751 -0.2030 0.7092
vn 0.8286 -0.3372 0.4468
vn 0.7258 -0.1167 0.6779
vn 0.8735 -0.1680 0.4570
vn 0.2191 -0.4488 0.8664
vn -0.3161 -0.3201 0.8931
vn 0.1431 -0.2584 0.9554
vn 0.7162 0.1170 -0.6880
vn 0.8565 0.0885 -0.5085
vn 0.7886 0.1690 -0.5912
vn 0.3931 0.1567 -0.9061
vn 0.7893 -0.1445 -0.5967
vn 0.7401 0.1072 -0.6639
vn -0.9953 -0.0966 -0.0059
vn -0.7266 -0.2287 -0.6479
vn -0.6120 -0.0514 -0.7891
vn -0.9696 0.2446 0.0068
vn -0.9269 0.1628 0.3381
vn -0.9234 0.3707 -0.1001
vn 0.4616 0.2185 -0.8597
vn 0.8020 0.1514 -0.5778
vn 0.8047 0.1394 -0.5771
vn 0.0419 -0.1214 0.9917
vn -0.3260 -0.0161 0.9452
vn -0.0158 -0.0570 0.9982
vn 0.9331 -0.1313 0.3348
vn 0.7079 -0.0518 0.7044
vn 0.9490 -0.1027 0.2981
vn 0.9823 -0.0614 -0.1770
vn 0.9975 -0.0704 0.0012
vn 0.9703 -0.0151 -0.2414
vn -0.7627 0.0448 0.6453
vn -0.9907 0.0509 0.1265
vn -0.9525 0.0913 0.2905
vn -0.8522 -0.4849 0.1963
vn -0.9899 -0.0927 -0.1074
vn -0.9045 -0.2477 0.3471
vn 0.9274 -0.0167 0.3737
vn 0.9871 0.0169 -0.1595
vn 0.9901 -0.0342 0.1363
vn 0.9312 -0.3627 0.0367
vn 0.9892 -0.0644 0.1314
vn 0.9954 -0.0362 0.0888
vn -0.2331 -0.9478 -0.2175
vn 0.9048 -0.3831 0.1858
vn 0.9926 -0.1067 0.0571
vn 0.9821 -0.1706 0.0796
vn -0.8749 -0.1208 0.4690
vn -0.7741 -0.0428 0.6317
vn -0.9902 0.1254 0.0614
vn -0.8902 0.3089 -0.3349
vn 0.3771 0.2345 -0.8960
vn 0.8328 0.0925 -0.5458
vn 0.1324 -0.1831 0.9741
vn -0.2781 -0.1106 0.9542
vn 0.8613 -0.1264 0.4921
vn 0.7361 -0.0146 0.6767
vn 0.9922 -0.1063 0.0645
vn -0.9993 0.0280 -0.0257
vn -0.6591 0.1663 -0.7334
vn 0.4427 0.2036 -0.8733
vn -0.3131 -0.1992 0.9286
vn 0.6986 -0.0207 0.7152
vn 0.7899 -0.0303 0.6125
vn 0.6199 -0.0151 0.7846
vn -0.2466 -0.5631 0.7888
vn -0.1378 -0.9904 0.0060
vn -0.9800 -0.1012 -0.1715
vn -0.9800 0.0990 -0.1728
vn 0.9990 -0.0250 0.0369
vn 0.9966 -0.0820 -0.0106
vn -0.9757 0.1616 -0.1481
vn 0.9329 -0.0039 -0.3600
vn -0.2280 -0.9642 -0.1353
vn 0.2862 -0.1973 -0.9376
vn 0.8906 -0.0029 -0.4548
vn -0.9878 0.1419 -0.0643
vn -0.9014 -0.4168 -0.1173
vn 0.8726 0.1245 -0.4723
vn 0.9365 0.0549 -0.3464
vn -0.9157 0.1150 0.3851
vn 0.3782 0.6939 0.6127
vn -0.8686 -0.1595 0.4692
vn -0.5317 -0.8354 0.1396
vn 0.3745 -0.3318 -0.8658
vn 0.2708 -0.3841 -0.8827
vn -0.6245 -0.7452 -0.2338
vn -0.1752 -0.9478 0.2663
vn -0.1168 -0.9710 -0.2086
vn -0.2237 0.5449 0.8081
vn 0.4113 0.1418 0.9004
vn 0.1842 0.1043 0.9773
vn 0.6953 -0.0721 0.7151
vn 0.5681 -0.1799 0.8031
vn 0.4690 0.0421 0.8822
vn 0.5244 0.0585 -0.8494
vn 0.6020 0.1464 -0.7850
vn 0.5799 0.1402 -0.8025
vn 0.2330 0.3804 0.8950
vn -0.1063 0.1921 0.9756
vn 0.4786 0.3163 -0.8191
vn 0.6094 0.2321 -0.7582
vn -0.2356 -0.9438 -0.2319
vn -0.5542 -0.8080 -0.2001
vn -0.8231 0.5344 0.1923
vn -0.0804 0.2524 0.9643
vn 0.6517 0.1164 0.7495
vn 0.5991 -0.1616 0.7842
vn -0.0399 0.4464 -0.8939
vn 0.5029 0.2391 -0.8306
vn 0.5481 0.0807 -0.8325
vn -0.6313 -0.0053 0.7756
vn -0.3542 0.6713 -0.6511
vn 0.5563 -0.2017 0.8061
vn 0.4969 -0.4958 0.7122
vn -0.2221 -0.9506 0.2170
vn 0.5686 -0.1174 0.8142
vn 0.2590 -0.3819 0.8872
vn 0.6757 0.0583 0.7349
vn 0.6750 0.0090 0.7378
vn 0.6612 0.0310 0.7496
vn 0.6704 0.2084 -0.7121
vn 0.9106 -0.2460 0.3321
vn -0.4053 -0.9142 0.0022
vn 0.3820 -0.2934 -0.8764
vn -0.0846 -0.9846 -0.1528
vn 0.5684 0.1902 0.8005
vn 0.5907 0.1608 -0.7907
vn 0.5843 0.2145 -0.7827
vn -0.2063 -0.9501 -0.2341
vn 0.9422 0.0570 -0.3301
vn 0.9958 0.0532 -0.0743
vn 0.9230 0.1088 -0.3690
vn 0.4849 0.1951 -0.8525
vn 0.5328 0.0917 -0.8413
vn 0.5921 0.1563 -0.7905
vn -0.1558 -0.6838 0.7128
vn -0.3035 -0.9486 -0.0900
vn -0.9015 0.4008 -0.1631
vn -0.8813 0.4021 0.2482
vn 0.8432 0.1149 0.5252
vn -0.9418 -0.2682 -0.2026
vn 0.9531 -0.3026 -0.0086
vn -0.2839 0.2448 0.9271
vn 0.1413 0.1177 0.9829
vn 0.4340 0.0245 0.9006
vn 0.2327 -0.5475 -0.8038
vn 0.3340 -0.2497 0.9089
vn -0.9456 0.2939 -0.1397
vn -0.8996 0.3872 0.2019
vn -0.9550 0.1938 0.2244
vn -0.9345 -0.3449 0.0878
vn -0.8054 -0.5910 -0.0448
vn -0.6801 -0.6921 0.2419
vn -0.4110 -0.8703 0.2713
vn -0.8200 0.1919 0.5392
vn -0.8145 0.2747 0.5111
vn -0.9254 0.3687 -0.0873
vn 0.2765 0.0319 -0.9605
vn -0.9484 0.3081 -0.0747
vn -0.5298 0.3036 0.7919
vn -0.7391 0.1403 0.6589
vn -0.8195 -0.5279 -0.2231
vn 0.2955 0.1827 -0.9377
vn -0.0548 0.3791 -0.9237
vn -0.1258 0.0945 0.9875
vn -0.3957 0.0844 0.9145
vn -0.2091 -0.4227 -0.8818
vn -0.8867 0.4565 -0.0734
vn 0.3174 -0.2063 0.9256
vn 0.2937 -0.1101 0.9495
vn 0.1595 -0.0807 0.9839
vn 0.5498 -0.2482 0.7976
vn 0.5216 -0.4382 0.7321
vn 0.8225 0.1775 -0.5404
vn -0.8506 0.4972 -0.1711
vn 0.8002 0.1711 -0.5749
vn 0.1849 -0.1519 -0.9709
vn 0.6177 0.2978 0.7278
vn 0.9146 0.3200 0.2473
vn -0.9876 0.1563 -0.0112
vn 0.8002 0.2165 -0.5594
vn -0.9007 0.4344 0.0059
vn -0.8044 0.1455 0.5760
vn -0.5646 0.5215 -0.6397
vn 0.6067 -0.0671 0.7921
vn 0.2675 -0.0216 0.9633
vn -0.9613 0.2219 0.1633
vn 0.6260 0.1298 -0.7689
vn 0.8748 -0.0387 0.4829
vn 0.8552 0.0614 -0.5147
vn -0.9631 0.2691 0.0019
vn 0.5073 0.1433 -0.8498
vn 0.6000 0.0399 0.7990
vn 0.3151 0.2448 -0.9169
vn 0.6146 0.1567 0.7731
vn -0.9322 0.3103 -0.1862
vn 0.7551 0.0902 -0.6494
vn 0.9988 -0.0272 -0.0417
vn -0.6911 0.0790 0.7184
vn -0.9545 0.1357 0.2654
vn 0.9809 -0.0382 0.1908
vn -0.0131 -0.0180 0.9998
vn -0.9801 0.1982 0.0043
vn 0.9621 0.0003 -0.2727
vn 0.7368 0.1160 -0.6661
vn -0.3423 0.0054 0.9396
vt 0.812500 0.707130
vt 0.875000 0.750000
vt 0.812500 0.750000
vt 0.625000 0.937500
vt 0.595460 1.000000
vt 0.595460 0.937500
vt 0.625000 0.187500
vt 0.595460 0.250000
vt 0.595460 0.187500
vt 0.375000 0.707130
vt 0.312500 0.750000
vt 0.312500 0.707130
vt 0.595460 0.707130
vt 0.625000 0.750000
vt 0.595460 0.750000
vt 0.595460 0.437500
vt 0.625000 0.500000
vt 0.595460 0.500000
vt 0.500000 0.437500
vt 0.481641 0.500000
vt 0.481641 0.437500
vt 0.481641 0.707130
vt 0.500000 0.750000
vt 0.481641 0.750000
vt 0.500000 0.187500
vt 0.481641 0.250000
vt 0.481641 0.187500
vt 0.500000 0.937500
vt 0.481641 1.000000
vt 0.481641 0.937500
vt 0.500000 0.843750
vt 0.481641 0.875000
vt 0.481641 0.843750
vt 0.481641 0.312500
vt 0.500000 0.375000
vt 0.481641 0.375000
vt 0.625000 0.312500
vt 0.595460 0.375000
vt 0.595460 0.312500
vt 0.187500 0.707130
vt 0.250000 0.750000
vt 0.187500 0.750000
vt 0.625000 0.843750
vt 0.595460 0.875000
vt 0.595460 0.843750
vt 0.718750 0.707130
vt 0.750000 0.750000
vt 0.718750 0.750000
vt 0.562500 0.843750
vt 0.500000 0.875000
vt 0.562500 0.312500
vt 0.500000 0.312500
vt 0.562500 0.437500
vt 0.500000 0.500000
vt 0.500000 0.707130
vt 0.562500 0.750000
vt 0.562500 0.187500
vt 0.500000 0.250000
vt 0.562500 0.937500
vt 0.500000 1.000000
vt 0.562500 0.875000
vt 0.562500 0.375000
vt 0.562500 0.500000
vt 0.562500 0.707130
vt 0.562500 0.250000
vt 0.562500 1.000000
vt 0.125000 0.750000
vt 0.125000 0.707130
vt 0.625000 0.250000
vt 0.625000 0.875000
vt 0.750000 0.707130
vt 0.595460 0.406250
vt 0.562500 0.406250
vt 0.595460 0.812500
vt 0.562500 0.812500
vt 0.500000 0.406250
vt 0.500000 0.812500
vt 0.687500 0.707130
vt 0.625000 0.707130
vt 0.481641 0.812500
vt 0.481641 0.406250
vt 0.625000 0.406250
vt 0.281250 0.707130
vt 0.281250 0.750000
vt 0.281250 0.593750
vt 0.312500 0.625000
vt 0.281250 0.625000
vt 0.687500 0.593750
vt 0.625000 0.625000
vt 0.625000 0.593750
vt 0.750000 0.593750
vt 0.812500 0.625000
vt 0.750000 0.625000
vt 0.187500 0.593750
vt 0.125000 0.625000
vt 0.125000 0.593750
vt 0.562500 0.085740
vt 0.595460 0.125000
vt 0.562500 0.125000
vt 0.595460 0.593750
vt 0.562500 0.625000
vt 0.562500 0.593750
vt 0.500000 0.085740
vt 0.500000 0.125000
vt 0.500000 0.593750
vt 0.500000 0.625000
vt 0.718750 0.625000
vt 0.718750 0.593750
vt 0.250000 0.593750
vt 0.187500 0.625000
vt 0.481641 0.085740
vt 0.481641 0.125000
vt 0.481641 0.593750
vt 0.481641 0.625000
vt 0.595460 0.625000
vt 0.312500 0.593750
vt 0.375000 0.625000
vt 0.595460 0.085740
vt 0.625000 0.125000
vt 0.812500 0.593750
vt 0.875000 0.625000
vt 0.595460 0.042870
vt 0.625000 0.085740
vt 0.500000 0.042870
vt 0.481641 0.042870
vt 0.562500 0.042870
vt 0.312500 0.664260
vt 0.687500 0.625000
vt 0.625000 0.664260
vt 0.750000 0.664260
vt 0.125000 0.664260
vt 0.562500 0.664260
vt 0.500000 0.664260
vt 0.718750 0.664260
vt 0.250000 0.707130
vt 0.481641 0.664260
vt 0.595460 0.664260
vt 0.375000 0.664260
vt 0.875000 0.664260
vt 0.812500 0.664260
vt 0.687500 0.664260
vt 0.250000 0.562500
vt 0.187500 0.664260
vt 0.625000 0.375000
vt 0.687500 0.750000
vt 0.625000 0.812500
vt 0.250000 0.625000
vt 0.595460 0.000000
vt 0.562500 0.000000
vt 0.500000 0.000000
vt 0.481641 0.000000
vt 0.625000 0.000000
vt 0.875000 0.707130
vt 0.281250 0.500000
vt 0.250000 0.500000
vt 0.687500 0.500000
vt 0.718750 0.562500
vt 0.687500 0.562500
vt 0.812500 0.500000
vt 0.875000 0.562500
vt 0.812500 0.562500
vt 0.375000 0.500000
vt 0.312500 0.562500
vt 0.312500 0.500000
vt 0.595460 0.562500
vt 0.481641 0.562500
vt 0.187500 0.562500
vt 0.187500 0.500000
vt 0.718750 0.500000
vt 0.750000 0.562500
vt 0.562500 0.562500
vt 0.500000 0.562500
vt 0.125000 0.562500
vt 0.125000 0.500000
vt 0.750000 0.500000
vt 0.625000 0.562500
vt 0.281250 0.562500
vt 0.595460 0.156250
vt 0.562500 0.156250
vt 0.500000 0.156250
vt 0.481641 0.156250
vt 0.625000 0.156250
vt 0.875000 0.593750
vt 0.375000 0.593750
vt 0.281250 0.664260
vt 0.250000 0.664260
vt 0.375000 0.562500
vt 0.463282 0.593750
vt 0.463282 0.125000
vt 0.375000 0.156250
vt 0.375000 0.125000
vt 0.463282 0.156250
vt 0.375000 0.187500
vt 0.463282 0.562500
vt 0.463282 0.707130
vt 0.463282 0.000000
vt 0.375000 0.042870
vt 0.375000 0.000000
vt 0.463282 0.812500
vt 0.375000 0.843750
vt 0.375000 0.812500
vt 0.375000 0.375000
vt 0.463282 0.406250
vt 0.375000 0.406250
vt 0.463282 0.664260
vt 0.463282 0.042870
vt 0.375000 0.085740
vt 0.463282 0.625000
vt 0.463282 0.085740
vt 0.463282 0.437500
vt 0.375000 0.437500
vt 0.375000 0.750000
vt 0.463282 0.875000
vt 0.375000 0.937500
vt 0.375000 0.875000
vt 0.375000 0.250000
vt 0.463282 0.312500
vt 0.375000 0.312500
vt 0.463282 0.375000
vt 0.463282 0.937500
vt 0.375000 1.000000
vt 0.463282 0.187500
vt 0.463282 0.500000
vt 0.463282 0.843750
vt 0.463282 0.750000
vt 0.463282 0.250000
vt 0.463282 1.000000
vt 0.625000 1.000000
vt 0.625000 0.437500
vt 0.625000 0.042870
vt 0.875000 0.500000
s 1
usemtl Material
f 105/1/1 32/3/3 7/2/2
f 32/4/3 40/6/5 25/5/4
f 115/7/6 119/9/8 28/8/7
f 109/10/9 107/12/11 41/11/10
f 103/13/12 27/15/14 3/14/13
f 50/16/15 26/18/17 1/17/16
f 43/19/18 196/21/20 188/20/19
f 204/22/21 189/24/23 11/23/22
f 117/25/24 206/27/26 190/26/25
f 33/28/27 194/30/29 187/29/28
f 85/31/30 202/33/32 191/32/31
f 193/34/33 192/36/35 17/35/34
f 35/37/36 39/39/38 29/38/37
f 104/40/39 34/42/41 15/41/40
f 84/43/42 87/45/44 30/44/43
f 114/46/45 84/48/42 14/47/46
f 86/49/47 85/31/30 18/50/48
f 37/51/49 36/52/50 17/35/34
f 48/53/51 43/19/18 9/54/52
f 99/55/53 11/23/22 21/56/54
f 118/57/55 117/25/24 12/58/56
f 38/59/57 33/28/27 10/60/58
f 87/45/44 86/49/47 24/61/59
f 39/39/38 37/51/49 23/62/60
f 50/16/15 48/53/51 20/63/61
f 102/64/62 21/56/54 27/15/14
f 119/9/8 118/57/55 22/65/63
f 40/6/5 38/59/57 19/66/64
f 30/44/43 24/61/59 38/59/57
f 28/8/7 22/65/63 37/51/49
f 24/61/59 18/50/48 33/28/27
f 22/65/63 12/58/56 36/52/50
f 104/40/39 97/68/66 8/67/65
f 5/69/67 28/8/7 39/39/38
f 12/58/56 190/26/25 193/34/33
f 18/50/48 191/32/31 194/30/29
f 14/70/46 30/44/43 40/6/5
f 101/71/68 14/47/46 32/3/3
f 92/72/69 91/73/70 48/53/51
f 21/56/54 47/75/72 49/74/71
f 91/73/70 90/76/73 43/19/18
f 11/23/22 46/77/74 47/75/72
f 106/78/75 98/79/76 3/14/13
f 3/14/13 27/15/14 49/74/71
f 189/24/23 195/80/77 46/77/74
f 90/76/73 201/81/78 196/21/20
f 89/82/79 92/72/69 50/16/15
f 113/83/80 88/84/81 41/11/10
f 145/85/82 93/87/84 66/86/83
f 142/88/85 134/90/87 52/89/86
f 137/91/88 58/93/90 64/92/89
f 140/94/91 133/96/93 51/95/92
f 81/97/94 60/99/96 62/98/95
f 139/100/97 138/102/99 59/101/98
f 80/103/100 56/104/101 60/99/96
f 135/105/102 55/106/103 59/101/98
f 137/91/88 144/108/105 94/107/104
f 136/109/106 140/94/91 63/110/107
f 199/111/108 197/112/109 56/104/101
f 208/113/110 198/114/111 55/106/103
f 134/90/87 139/100/97 61/115/112
f 143/116/113 66/86/83 54/117/114
f 82/118/115 62/98/95 53/119/116
f 141/120/117 64/92/89 53/121/116
f 112/122/118 82/118/115 78/123/119
f 110/124/120 203/125/121 199/111/108
f 110/124/120 80/103/100 81/97/94
f 112/122/118 111/126/122 81/97/94
f 77/127/123 66/86/83 157/86/124
f 65/128/125 52/89/86 68/129/126
f 64/92/89 58/93/90 71/130/127
f 63/110/107 51/95/92 67/131/128
f 61/115/112 59/101/98 72/132/129
f 55/106/103 69/133/130 72/132/129
f 58/93/90 94/107/104 96/134/131
f 100/135/132 161/135/134 162/40/133
f 198/114/111 200/136/135 69/133/130
f 52/89/86 61/115/112 73/137/136
f 66/86/83 77/127/123 79/138/137
f 64/92/89 75/140/138 78/139/119
f 94/107/104 65/128/125 76/141/139
f 136/109/106 151/109/141 166/142/140
f 144/108/105 142/88/85 65/128/125
f 104/40/39 162/40/133 156/143/142
f 100/135/132 15/41/40 88/84/81
f 16/144/143 29/38/37 92/72/69
f 17/35/34 192/36/35 201/81/78
f 23/62/60 17/35/34 90/76/73
f 29/38/37 23/62/60 91/73/70
f 49/74/71 47/75/72 86/49/47
f 47/75/72 46/77/74 85/31/30
f 106/78/75 45/145/144 84/48/42
f 45/146/144 49/74/71 87/45/44
f 46/77/74 195/80/77 202/33/32
f 96/134/131 76/141/139 106/78/75
f 57/147/145 63/110/107 154/110/146
f 25/148/4 19/149/64 111/126/122
f 19/149/64 10/150/58 110/124/120
f 10/150/58 187/151/28 203/125/121
f 7/152/2 25/148/4 112/122/118
f 74/143/147 156/143/142 154/110/146
f 76/141/139 68/129/126 98/79/76
f 75/140/138 71/130/127 101/71/68
f 74/143/147 67/131/128 97/68/66
f 72/132/129 102/64/62 103/13/12
f 69/133/130 99/55/53 102/64/62
f 71/130/127 96/134/131 114/46/45
f 93/87/84 153/87/148 157/86/124
f 200/136/135 204/22/21 99/55/53
f 68/129/126 73/137/136 103/13/12
f 79/138/137 77/127/123 107/12/11
f 75/140/138 105/1/1 108/153/149
f 83/154/150 13/155/152 123/142/151
f 42/156/153 129/158/155 131/157/154
f 35/159/36 128/161/156 115/160/6
f 2/162/157 44/164/159 130/163/158
f 1/17/16 26/18/17 126/165/160
f 9/54/52 188/20/19 205/166/161
f 13/155/152 31/168/163 127/167/162
f 89/169/79 131/157/154 124/170/164
f 9/54/52 122/172/166 125/171/165
f 26/18/17 20/63/61 125/171/165
f 31/168/163 6/174/168 120/173/167
f 16/175/143 124/170/164 128/161/156
f 42/156/153 1/17/16 121/176/169
f 44/164/159 83/154/150 132/177/170
f 150/178/171 149/179/172 118/57/55
f 148/180/173 117/25/24 118/57/55
f 148/180/173 207/181/174 206/27/26
f 150/178/171 119/9/8 115/7/6
f 62/98/95 150/178/171 146/182/175
f 197/112/109 207/181/174 148/180/173
f 56/104/101 148/180/173 149/179/172
f 62/98/95 60/99/96 149/179/172
f 113/83/80 164/83/176 161/135/134
f 131/157/154 129/158/155 142/88/85
f 128/161/156 141/120/117 146/183/175
f 130/163/158 143/116/113 147/184/177
f 121/176/169 126/165/160 139/100/97
f 205/166/161 208/113/110 135/105/102
f 123/142/151 127/167/162 140/94/91
f 131/157/154 144/108/105 137/91/88
f 122/172/166 135/105/102 138/102/99
f 126/165/160 125/171/165 138/102/99
f 127/167/162 120/173/167 133/96/93
f 124/170/164 137/91/88 141/120/117
f 129/158/155 121/176/169 134/90/87
f 130/163/158 132/177/170 145/85/82
f 153/87/148 159/185/179 158/127/178
f 152/147/180 154/110/146 156/143/142
f 152/147/180 155/186/181 159/185/179
f 160/85/182 151/109/141 152/147/180
f 155/186/181 161/135/134 164/83/176
f 159/185/179 164/83/176 163/12/183
f 156/143/142 162/40/133 161/135/134
f 165/177/184 166/142/140 151/109/141
f 107/12/11 163/12/183 164/83/176
f 132/177/170 123/142/151 166/142/140
f 145/85/82 132/177/170 165/177/184
f 77/127/123 158/127/178 163/12/183
f 57/147/145 152/147/180 151/109/141
f 93/87/84 145/85/82 160/85/182
f 116/187/185 147/184/177 186/188/186
f 175/189/187 51/191/92 133/190/93
f 185/192/188 133/190/93 120/193/167
f 2/162/157 116/187/185 183/194/189
f 79/138/137 109/10/9 182/195/190
f 168/196/191 8/198/65 97/197/66
f 173/199/192 41/201/10 88/200/81
f 13/202/152 83/204/150 179/203/193
f 54/117/114 79/138/137 178/205/194
f 181/206/195 97/197/66 67/207/128
f 147/184/177 54/117/114 176/208/196
f 177/209/197 67/207/128 51/191/92
f 83/204/150 44/211/159 174/210/198
f 4/212/199 41/201/10 173/199/192
f 169/213/200 15/215/40 34/214/41
f 6/216/168 31/218/163 171/217/201
f 31/218/163 13/202/152 170/219/202
f 88/200/81 15/215/40 169/213/200
f 172/220/203 34/214/41 8/221/65
f 184/222/204 120/193/167 6/216/168
f 182/195/190 109/10/9 4/212/199
f 44/211/159 2/162/157 95/223/205
f 183/194/189 186/188/186 208/113/110
f 197/112/109 175/189/187 185/192/188
f 207/181/174 185/192/188 184/222/204
f 188/20/19 95/223/205 183/194/189
f 178/205/194 182/195/190 204/22/21
f 187/151/28 168/196/191 181/206/195
f 195/80/77 173/199/192 180/224/206
f 170/219/202 179/203/193 201/81/78
f 176/208/196 178/205/194 200/136/135
f 203/125/121 181/206/195 177/209/197
f 186/188/186 176/208/196 198/114/111
f 199/111/108 177/209/197 175/189/187
f 201/81/78 179/203/193 174/210/198
f 189/24/23 70/225/207 173/199/192
f 191/32/31 169/213/200 172/220/203
f 190/26/25 167/226/208 171/217/201
f 171/217/201 170/219/202 192/36/35
f 180/224/206 169/213/200 191/32/31
f 194/30/29 172/220/203 168/227/191
f 206/27/26 184/222/204 167/226/208
f 182/195/190 70/225/207 189/24/23
f 196/21/20 174/210/198 95/223/205
f 105/1/1 7/2/2 108/153/149
f 32/4/3 25/5/4 7/228/2
f 115/7/6 28/8/7 5/69/67
f 109/10/9 41/11/10 4/212/199
f 103/13/12 3/14/13 98/79/76
f 50/16/15 1/17/16 42/229/153
f 43/19/18 188/20/19 9/54/52
f 204/22/21 11/23/22 99/55/53
f 117/25/24 190/26/25 12/58/56
f 33/28/27 187/29/28 10/60/58
f 85/31/30 191/32/31 18/50/48
f 193/34/33 17/35/34 36/52/50
f 35/37/36 29/38/37 16/144/143
f 104/40/39 15/41/40 100/135/132
f 84/43/42 30/44/43 14/70/46
f 114/46/45 14/47/46 101/71/68
f 86/49/47 18/50/48 24/61/59
f 37/51/49 17/35/34 23/62/60
f 48/53/51 9/54/52 20/63/61
f 99/55/53 21/56/54 102/64/62
f 118/57/55 12/58/56 22/65/63
f 38/59/57 10/60/58 19/66/64
f 87/45/44 24/61/59 30/44/43
f 39/39/38 23/62/60 29/38/37
f 50/16/15 20/63/61 26/18/17
f 102/64/62 27/15/14 103/13/12
f 119/9/8 22/65/63 28/8/7
f 40/6/5 19/66/64 25/5/4
f 30/44/43 38/59/57 40/6/5
f 28/8/7 37/51/49 39/39/38
f 24/61/59 33/28/27 38/59/57
f 22/65/63 36/52/50 37/51/49
f 104/40/39 8/67/65 34/42/41
f 5/69/67 39/39/38 35/37/36
f 12/58/56 193/34/33 36/52/50
f 18/50/48 194/30/29 33/28/27
f 14/70/46 40/6/5 32/4/3
f 101/71/68 32/3/3 105/1/1
f 92/72/69 48/53/51 50/16/15
f 21/56/54 49/74/71 27/15/14
f 91/73/70 43/19/18 48/53/51
f 11/23/22 47/75/72 21/56/54
f 106/78/75 3/14/13 45/145/144
f 3/14/13 49/74/71 45/146/144
f 189/24/23 46/77/74 11/23/22
f 90/76/73 196/21/20 43/19/18
f 89/82/79 50/16/15 42/229/153
f 113/83/80 41/11/10 107/12/11
f 145/85/82 66/86/83 143/116/113
f 142/88/85 52/89/86 65/128/125
f 137/91/88 64/92/89 141/120/117
f 140/94/91 51/95/92 63/110/107
f 81/97/94 62/98/95 82/118/115
f 139/100/97 59/101/98 61/115/112
f 80/103/100 60/99/96 81/97/94
f 135/105/102 59/101/98 138/102/99
f 137/91/88 94/107/104 58/93/90
f 136/109/106 63/110/107 57/147/145
f 199/111/108 56/104/101 80/103/100
f 208/113/110 55/106/103 135/105/102
f 134/90/87 61/115/112 52/89/86
f 143/116/113 54/117/114 147/184/177
f 82/118/115 53/119/116 78/123/119
f 141/120/117 53/121/116 146/183/175
f 112/122/118 78/123/119 108/230/149
f 110/124/120 199/111/108 80/103/100
f 110/124/120 81/97/94 111/126/122
f 112/122/118 81/97/94 82/118/115
f 77/127/123 157/86/124 158/127/178
f 65/128/125 68/129/126 76/141/139
f 64/92/89 71/130/127 75/140/138
f 63/110/107 67/131/128 74/143/147
f 61/115/112 72/132/129 73/137/136
f 55/106/103 72/132/129 59/101/98
f 58/93/90 96/134/131 71/130/127
f 100/135/132 162/40/133 104/40/39
f 198/114/111 69/133/130 55/106/103
f 52/89/86 73/137/136 68/129/126
f 66/86/83 79/138/137 54/117/114
f 64/92/89 78/139/119 53/121/116
f 94/107/104 76/141/139 96/134/131
f 136/109/106 166/142/140 123/142/151
f 144/108/105 65/128/125 94/107/104
f 104/40/39 156/143/142 74/143/147
f 100/135/132 88/84/81 113/83/80
f 16/144/143 92/72/69 89/82/79
f 17/35/34 201/81/78 90/76/73
f 23/62/60 90/76/73 91/73/70
f 29/38/37 91/73/70 92/72/69
f 49/74/71 86/49/47 87/45/44
f 47/75/72 85/31/30 86/49/47
f 106/78/75 84/48/42 114/46/45
f 45/146/144 87/45/44 84/43/42
f 46/77/74 202/33/32 85/31/30
f 96/134/131 106/78/75 114/46/45
f 57/147/145 154/110/146 152/147/180
f 25/148/4 111/126/122 112/122/118
f 19/149/64 110/124/120 111/126/122
f 10/150/58 203/125/121 110/124/120
f 7/152/2 112/122/118 108/230/149
f 74/143/147 154/110/146 63/110/107
f 76/141/139 98/79/76 106/78/75
f 75/140/138 101/71/68 105/1/1
f 74/143/147 97/68/66 104/40/39
f 72/132/129 103/13/12 73/137/136
f 69/133/130 102/64/62 72/132/129
f 71/130/127 114/46/45 101/71/68
f 93/87/84 157/86/124 66/86/83
f 200/136/135 99/55/53 69/133/130
f 68/129/126 103/13/12 98/79/76
f 79/138/137 107/12/11 109/10/9
f 75/140/138 108/153/149 78/139/119
f 83/154/150 123/142/151 132/177/170
f 42/156/153 131/157/154 89/169/79
f 35/159/36 115/160/6 5/231/67
f 2/162/157 130/163/158 116/187/185
f 1/17/16 126/165/160 121/176/169
f 9/54/52 205/166/161 122/172/166
f 13/155/152 127/167/162 123/142/151
f 89/169/79 124/170/164 16/175/143
f 9/54/52 125/171/165 20/63/61
f 26/18/17 125/171/165 126/165/160
f 31/168/163 120/173/167 127/167/162
f 16/175/143 128/161/156 35/159/36
f 42/156/153 121/176/169 129/158/155
f 44/164/159 132/177/170 130/163/158
f 150/178/171 118/57/55 119/9/8
f 148/180/173 118/57/55 149/179/172
f 148/180/173 206/27/26 117/25/24
f 150/178/171 115/7/6 146/182/175
f 62/98/95 146/182/175 53/119/116
f 197/112/109 148/180/173 56/104/101
f 56/104/101 149/179/172 60/99/96
f 62/98/95 149/179/172 150/178/171
f 113/83/80 161/135/134 100/135/132
f 131/157/154 142/88/85 144/108/105
f 128/161/156 146/183/175 115/160/6
f 130/163/158 147/184/177 116/187/185
f 121/176/169 139/100/97 134/90/87
f 205/166/161 135/105/102 122/172/166
f 123/142/151 140/94/91 136/109/106
f 131/157/154 137/91/88 124/170/164
f 122/172/166 138/102/99 125/171/165
f 126/165/160 138/102/99 139/100/97
f 127/167/162 133/96/93 140/94/91
f 124/170/164 141/120/117 128/161/156
f 129/158/155 134/90/87 142/88/85
f 130/163/158 145/85/82 143/116/113
f 153/87/148 158/127/178 157/86/124
f 152/147/180 156/143/142 155/186/181
f 152/147/180 159/185/179 153/87/148
f 160/85/182 152/147/180 153/87/148
f 155/186/181 164/83/176 159/185/179
f 159/185/179 163/12/183 158/127/178
f 156/143/142 161/135/134 155/186/181
f 165/177/184 151/109/141 160/85/182
f 107/12/11 164/83/176 113/83/80
f 132/177/170 166/142/140 165/177/184
f 145/85/82 165/177/184 160/85/182
f 77/127/123 163/12/183 107/12/11
f 57/147/145 151/109/141 136/109/106
f 93/87/84 160/85/182 153/87/148
f 116/187/185 186/188/186 183/194/189
f 175/189/187 133/190/93 185/192/188
f 185/192/188 120/193/167 184/222/204
f 2/162/157 183/194/189 95/223/205
f 79/138/137 182/195/190 178/205/194
f 168/196/191 97/197/66 181/206/195
f 173/199/192 88/200/81 180/224/206
f 13/202/152 179/203/193 170/219/202
f 54/117/114 178/205/194 176/208/196
f 181/206/195 67/207/128 177/209/197
f 147/184/177 176/208/196 186/188/186
f 177/209/197 51/191/92 175/189/187
f 83/204/150 174/210/198 179/203/193
f 4/212/199 173/199/192 70/225/207
f 169/213/200 34/214/41 172/220/203
f 6/216/168 171/217/201 167/226/208
f 31/218/163 170/219/202 171/217/201
f 88/200/81 169/213/200 180/224/206
f 172/220/203 8/221/65 168/227/191
f 184/222/204 6/216/168 167/226/208
f 182/195/190 4/212/199 70/225/207
f 44/211/159 95/223/205 174/210/198
f 183/194/189 208/113/110 205/166/161
f 197/112/109 185/192/188 207/181/174
f 207/181/174 184/222/204 206/27/26
f 188/20/19 183/194/189 205/166/161
f 178/205/194 204/22/21 200/136/135
f 187/151/28 181/206/195 203/125/121
f 195/80/77 180/224/206 202/33/32
f 170/219/202 201/81/78 192/36/35
f 176/208/196 200/136/135 198/114/111
f 203/125/121 177/209/197 199/111/108
f 186/188/186 198/114/111 208/113/110
f 199/111/108 175/189/187 197/112/109
f 201/81/78 174/210/198 196/21/20
f 189/24/23 173/199/192 195/80/77
f 191/32/31 172/220/203 194/30/29
f 190/26/25 171/217/201 193/34/33
f 171/217/201 192/36/35 193/34/33
f 180/224/206 191/32/31 202/33/32
f 194/30/29 168/227/191 187/29/28
f 206/27/26 167/226/208 190/26/25
f 182/195/190 189/24/23 204/22/21
f 196/21/20 95/223/205 188/20/19
