# Blender 3.6.13
# www.blender.org
mtllib Stem.mtl
o Cube
v 1.470020 -3.334722 1.307423
v -1.325988 3.140326 -1.035400
v 1.496938 -3.275496 1.210909
v -1.209015 3.089685 -1.203127
v 1.242221 -3.124237 1.234039
v -1.423883 3.091947 -1.131067
v 1.621797 -3.894654 1.345923
v -1.370451 3.087870 -1.247535
v 1.127755 -2.487858 1.137156
v 1.379438 -3.292741 1.113814
v 1.279362 -2.737612 1.026834
v 0.989296 -2.538032 1.016020
v 1.533131 -3.685895 1.256942
v 1.387334 -3.133687 1.297378
v 1.433078 -3.111621 1.159234
v 1.130609 -2.865552 1.137830
v -1.099591 2.627429 -0.873171
v -0.974344 2.661926 -1.075143
v -1.174564 2.590162 -0.992346
v -1.139948 2.554396 -1.066845
v -0.887945 1.972439 -0.837394
v -1.255839 3.021532 -0.986189
v -0.762472 2.073330 -0.835979
v -1.025381 2.230587 -0.844770
v 0.046430 -0.189927 -0.088845
v -0.163026 0.589447 0.074822
v 0.140477 0.189809 -0.106461
v -0.036053 -0.159422 0.129807
v 0.800215 -1.912314 0.549376
v 0.605847 -1.201737 0.869514
v 0.652934 -1.146562 0.431327
v 0.472770 -1.340876 0.570779
v 1.101627 -2.657824 0.808807
v 0.844919 -1.798356 0.956466
v 0.984936 -2.038225 0.787228
v 0.715557 -1.903584 0.780059
v -0.940683 2.274049 -0.758703
v -0.603275 1.688971 -0.583777
v -0.539517 1.036127 -0.338580
v -0.496996 1.095881 -0.522479
v -0.159149 0.312840 -0.257410
v -0.647995 1.688676 -0.356613
v -0.257501 1.002162 -0.377036
v -0.249726 0.342312 -0.061941
v -1.226039 2.900894 -0.952882
v -1.095690 2.888878 -1.150426
v -1.313946 2.849467 -1.048636
v -1.242895 2.794942 -1.144558
v -1.374140 3.116129 -1.125671
v 1.567390 -3.521396 1.182652
v -1.275449 3.121885 -1.275672
v 1.304045 -3.071003 1.207290
v 1.028659 -2.467358 1.035574
v 1.478613 -3.257793 1.076745
v 1.182485 -2.823369 1.157198
v 1.571223 -3.508918 1.189556
v -1.017196 2.502321 -1.034541
v -1.132788 2.603609 -0.973593
v -0.806737 2.021750 -0.864941
v -0.967822 2.227768 -0.828827
v 0.182504 -0.136746 -0.187393
v 0.018394 -0.119078 0.168664
v 0.750283 -1.398439 0.190352
v 0.529477 -1.309006 0.608465
v 1.147010 -2.454876 0.737173
v 0.773202 -1.875246 0.819491
v -0.489115 1.065957 -0.316530
v -0.358348 1.097250 -0.547080
v -0.198153 0.381866 -0.028288
v -0.058063 0.378172 -0.300931
v -1.263618 2.871011 -1.045472
v -1.134934 2.802173 -1.162824
v -1.286987 3.050575 -1.002062
v -1.164122 3.071132 -1.230914
v -1.393965 3.000857 -1.084129
v -1.341836 3.022458 -1.211471
v -1.228039 3.023966 -1.262748
v -1.339273 3.027299 -1.083712
v -1.299876 2.926767 -1.195195
v -1.256122 2.975225 -0.977245
v -1.124426 3.004680 -1.214453
v -1.358437 2.925031 -1.059824
v -1.190075 2.937569 -1.232331
v -1.303898 2.950192 -1.060428
v -1.089997 2.931832 -1.342234
v -1.154864 3.004194 -1.366002
v -1.142806 2.904289 -1.348554
v -1.175292 2.981229 -1.374200
v -1.119211 2.971753 -1.529120
v -1.164491 3.092469 -1.557877
v -1.150972 2.948238 -1.468567
v -1.183378 3.025087 -1.494302
v -1.037295 2.930314 -1.748595
v -1.085117 2.986784 -1.699018
v -1.109852 2.941165 -1.690020
v -1.156747 2.943791 -1.692464
v -1.127964 3.004070 -1.840685
v -1.150719 3.020069 -1.797144
v -1.125335 2.945363 -1.846349
v -1.158576 2.978811 -1.774236
v -1.214503 3.123256 -1.966240
v -1.250579 3.125675 -1.879281
v -1.251022 3.073256 -1.970267
v -1.260686 3.084407 -1.875981
v -1.390510 3.251486 -1.962273
v -1.392492 3.245802 -1.875038
v -1.427028 3.201486 -1.966300
v -1.429084 3.195967 -1.879133
v -1.318235 3.497037 -1.867095
v -1.320388 3.491489 -1.779887
v -1.364648 3.395274 -1.872199
v -1.356906 3.441490 -1.783914
vn -0.2565 0.0458 0.9655
vn -0.9099 -0.4109 0.0578
vn -0.7436 -0.4993 -0.4447
vn -0.0463 -0.3892 -0.9200
vn 0.6123 -0.0798 -0.7866
vn -0.6206 -0.4883 -0.6135
vn -0.9246 -0.3627 0.1163
vn -0.7064 0.1478 0.6922
vn -0.6339 0.1522 0.7583
vn 0.7184 0.6534 0.2387
vn -0.1915 -0.2246 -0.9554
vn 0.2763 0.3408 0.8986
vn 0.1768 0.0783 0.9811
vn 0.9410 0.3144 0.1252
vn 0.9193 0.3804 0.1011
vn -0.5166 0.0450 0.8550
vn -0.7078 -0.0594 0.7039
vn -0.6317 -0.0072 0.7752
vn 0.3596 0.4011 0.8425
vn -0.0606 0.2105 0.9757
vn 0.9206 0.3878 0.0456
vn 0.9124 0.3963 0.1022
vn -0.7141 -0.5034 -0.4865
vn -0.6398 -0.5061 -0.5784
vn -0.9176 -0.3051 0.2547
vn -0.9199 -0.3035 0.2484
vn 0.7890 0.0377 -0.6132
vn 0.8796 0.1763 -0.4419
vn 0.1646 -0.3131 -0.9353
vn 0.1332 -0.3032 -0.9436
vn -0.5201 -0.4917 -0.6983
vn -0.6389 -0.5129 -0.5734
vn -0.9098 -0.4142 -0.0242
vn -0.8549 -0.4867 -0.1799
vn -0.0100 0.2532 0.9674
vn 0.1964 0.4097 0.8909
vn 0.9124 0.4083 0.0294
vn 0.9295 0.3682 -0.0203
vn -0.7018 -0.1658 0.6928
vn -0.6566 -0.0208 0.7539
vn 0.1906 -0.2666 -0.9448
vn -0.6884 -0.4943 -0.5308
vn -0.9268 -0.3740 0.0348
vn 0.6591 0.5040 0.5582
vn 0.9263 0.3601 -0.1107
vn -0.7667 -0.0785 0.6372
vn 0.1831 -0.2100 -0.9604
vn 0.4407 -0.1172 -0.8900
vn -0.7595 -0.4788 -0.4403
vn -0.6932 -0.4733 -0.5436
vn -0.9270 -0.3213 0.1935
vn -0.9331 -0.3203 0.1637
vn -0.0586 0.3677 0.9281
vn 0.4701 0.4912 0.7333
vn 0.9131 0.4076 0.0130
vn 0.9033 0.4287 -0.0161
vn -0.7506 -0.0556 0.6585
vn -0.7650 -0.0824 0.6387
vn 0.2267 -0.2725 -0.9351
vn -0.7199 -0.4917 -0.4899
vn -0.9265 -0.3244 0.1906
vn 0.2426 0.4101 0.8792
vn 0.9109 0.4042 0.0835
vn -0.7415 -0.0742 0.6668
vn -0.7512 -0.0394 0.6589
vn -0.3490 0.2479 0.9038
vn 0.8588 0.4768 0.1876
vn -0.6253 -0.4854 -0.6111
vn -0.9277 -0.3731 0.0140
vn 0.7597 0.1216 -0.6388
vn -0.6332 -0.0691 0.7709
vn 0.2565 0.4061 0.8771
vn 0.8637 0.4504 0.2260
vn -0.6378 -0.4976 -0.5879
vn -0.9210 -0.3829 0.0716
vn -0.7293 -0.5057 -0.4609
vn -0.8541 -0.4495 -0.2617
vn -0.6175 -0.4474 -0.6469
vn -0.8686 -0.1920 0.4568
vn -0.6747 -0.0138 0.7380
vn 0.7481 0.5185 0.4141
vn -0.6729 -0.4334 -0.5995
vn -0.7203 -0.4784 -0.5022
vn 0.3011 0.4837 0.8218
vn 0.7404 0.6722 -0.0032
vn -0.8857 -0.4219 -0.1938
vn 0.9151 0.4024 0.0248
vn -0.8858 -0.4451 -0.1312
vn -0.8460 -0.5263 -0.0855
vn 0.8920 0.4002 0.2099
vn -0.9171 -0.3893 -0.0854
vn 0.8368 0.5283 0.1442
vn 0.8631 0.4612 0.2059
vn -0.9229 -0.3827 0.0415
vn 0.2127 0.8813 0.4220
vn -0.7111 -0.0475 0.7015
vn 0.9304 0.3654 -0.0277
vn -0.3348 -0.9414 -0.0398
vn 0.9215 0.3386 -0.1902
vn 0.4666 -0.4423 -0.7659
vn -0.1994 -0.4166 -0.8870
vn 0.7629 0.0943 -0.6396
vn -0.5374 -0.5032 0.6767
vn 0.0294 0.6265 0.7789
vn 0.5779 0.0046 0.8161
vn -0.9169 -0.2962 0.2675
vn 0.1456 0.5059 -0.8502
vn 0.9125 0.2853 -0.2932
vn 0.7331 0.4913 0.4703
vn -0.7751 -0.4848 -0.4052
vn -0.8903 0.3916 -0.2324
vn -0.5614 0.0646 0.8250
vt 0.750000 0.500000
vt 0.875000 0.500000
vt 0.875000 0.750000
vt 0.750000 0.750000
vt 0.614603 0.875000
vt 0.625000 0.875000
vt 0.625000 1.000000
vt 0.614603 1.000000
vt 0.614603 0.000000
vt 0.625000 0.000000
vt 0.625000 0.250000
vt 0.614603 0.250000
vt 0.250000 0.500000
vt 0.375000 0.500000
vt 0.375000 0.750000
vt 0.250000 0.750000
vt 0.614603 0.500000
vt 0.625000 0.500000
vt 0.625000 0.750000
vt 0.614603 0.750000
vt 0.614603 0.375000
vt 0.625000 0.375000
vt 0.575939 0.375000
vt 0.601439 0.375000
vt 0.601439 0.500000
vt 0.575939 0.500000
vt 0.601439 0.750000
vt 0.575939 0.750000
vt 0.575939 0.000000
vt 0.601439 0.000000
vt 0.601439 0.250000
vt 0.575939 0.250000
vt 0.575939 0.875000
vt 0.601439 0.875000
vt 0.601439 1.000000
vt 0.575939 1.000000
vt 0.384747 0.875000
vt 0.395184 0.875000
vt 0.395184 1.000000
vt 0.384747 1.000000
vt 0.384747 0.000000
vt 0.395184 0.000000
vt 0.395184 0.250000
vt 0.384747 0.250000
vt 0.384747 0.500000
vt 0.395184 0.500000
vt 0.395184 0.750000
vt 0.384747 0.750000
vt 0.384747 0.375000
vt 0.395184 0.375000
vt 0.409650 0.875000
vt 0.409650 1.000000
vt 0.409650 0.000000
vt 0.409650 0.250000
vt 0.409650 0.500000
vt 0.409650 0.750000
vt 0.409650 0.375000
vt 0.485658 0.875000
vt 0.505833 0.875000
vt 0.505833 1.000000
vt 0.485658 1.000000
vt 0.485658 0.000000
vt 0.505833 0.000000
vt 0.505833 0.250000
vt 0.485658 0.250000
vt 0.485658 0.500000
vt 0.505833 0.500000
vt 0.505833 0.750000
vt 0.485658 0.750000
vt 0.485658 0.375000
vt 0.505833 0.375000
vt 0.553322 0.875000
vt 0.553322 1.000000
vt 0.553322 0.000000
vt 0.553322 0.250000
vt 0.553322 0.500000
vt 0.553322 0.750000
vt 0.553322 0.375000
vt 0.457741 0.375000
vt 0.457741 0.500000
vt 0.457741 0.750000
vt 0.457741 0.000000
vt 0.457741 0.250000
vt 0.457741 0.875000
vt 0.457741 1.000000
vt 0.381696 0.375000
vt 0.381696 0.500000
vt 0.381696 0.750000
vt 0.381696 0.000000
vt 0.381696 0.250000
vt 0.381696 0.875000
vt 0.381696 1.000000
vt 0.125000 0.500000
vt 0.125000 0.750000
vt 0.375000 0.250000
vt 0.378645 0.250000
vt 0.378645 0.375000
vt 0.375000 0.375000
vt 0.378645 0.750000
vt 0.378645 0.875000
vt 0.375000 0.875000
vt 0.378645 1.000000
vt 0.375000 1.000000
vt 0.375000 0.000000
vt 0.378645 0.000000
vt 0.378645 0.500000
s 1
usemtl Material
f 52/1/1 5/2/2 7/3/3 50/4/4
f 56/5/5 50/6/4 7/7/3 13/8/6
f 13/9/6 7/10/3 5/11/2 16/12/7
f 49/13/8 2/14/9 4/15/10 51/16/11
f 14/17/12 1/18/13 3/19/14 15/20/15
f 55/21/16 52/22/1 1/18/13 14/17/12
f 66/23/17 53/24/18 9/25/19 34/26/20
f 34/26/20 9/25/19 11/27/21 35/28/22
f 33/29/23 10/30/24 12/31/25 36/32/26
f 65/33/27 54/34/28 10/35/24 33/36/23
f 53/24/18 55/21/16 14/17/12 9/25/19
f 9/25/19 14/17/12 15/20/15 11/27/21
f 10/30/24 13/9/6 16/12/7 12/31/25
f 54/34/28 56/5/5 13/8/6 10/35/24
f 72/37/29 57/38/30 20/39/31 48/40/32
f 48/41/32 20/42/31 19/43/33 47/44/34
f 45/45/35 17/46/36 18/47/37 46/48/38
f 71/49/39 58/50/40 17/46/36 45/45/35
f 57/38/30 59/51/41 21/52/42 20/39/31
f 20/42/31 21/53/42 24/54/43 19/43/33
f 17/46/36 22/55/44 23/56/45 18/47/37
f 58/50/40 60/57/46 22/55/44 17/46/36
f 70/58/47 61/59/48 25/60/49 41/61/50
f 41/62/50 25/63/49 28/64/51 44/65/52
f 42/66/53 26/67/54 27/68/55 43/69/56
f 69/70/57 62/71/58 26/67/54 42/66/53
f 61/59/48 63/72/59 29/73/60 25/60/49
f 25/63/49 29/74/60 32/75/61 28/64/51
f 26/67/54 30/76/62 31/77/63 27/68/55
f 62/71/58 64/78/64 30/76/62 26/67/54
f 63/72/59 65/33/27 33/36/23 29/73/60
f 29/74/60 33/29/23 36/32/26 32/75/61
f 30/76/62 34/26/20 35/28/22 31/77/63
f 64/78/64 66/23/17 34/26/20 30/76/62
f 60/57/46 67/79/65 37/80/66 22/55/44
f 22/55/44 37/80/66 38/81/67 23/56/45
f 21/53/42 40/82/68 39/83/69 24/54/43
f 59/51/41 68/84/70 40/85/68 21/52/42
f 67/79/65 69/70/57 42/66/53 37/80/66
f 37/80/66 42/66/53 43/69/56 38/81/67
f 40/82/68 41/62/50 44/65/52 39/83/69
f 68/84/70 70/58/47 41/61/50 40/85/68
f 84/86/71 71/49/39 45/45/35 80/87/72
f 80/87/72 45/45/35 46/48/38 81/88/73
f 79/89/74 48/41/32 47/44/34 82/90/75
f 83/91/76 72/37/29 48/40/32 79/92/74
f 81/88/73 46/48/38 72/37/29 83/91/76
f 82/90/75 47/44/34 71/49/39 84/86/71
f 38/81/67 43/69/56 70/58/47 68/84/70
f 39/83/69 44/65/52 69/70/57 67/79/65
f 23/56/45 38/81/67 68/84/70 59/51/41
f 24/54/43 39/83/69 67/79/65 60/57/46
f 32/75/61 36/32/26 66/23/17 64/78/64
f 31/77/63 35/28/22 65/33/27 63/72/59
f 28/64/51 32/75/61 64/78/64 62/71/58
f 27/68/55 31/77/63 63/72/59 61/59/48
f 44/65/52 28/64/51 62/71/58 69/70/57
f 43/69/56 27/68/55 61/59/48 70/58/47
f 19/43/33 24/54/43 60/57/46 58/50/40
f 18/47/37 23/56/45 59/51/41 57/38/30
f 47/44/34 19/43/33 58/50/40 71/49/39
f 46/48/38 18/47/37 57/38/30 72/37/29
f 11/27/21 15/20/15 56/5/5 54/34/28
f 12/31/25 16/12/7 55/21/16 53/24/18
f 35/28/22 11/27/21 54/34/28 65/33/27
f 36/32/26 12/31/25 53/24/18 66/23/17
f 16/12/7 5/11/2 52/22/1 55/21/16
f 6/93/77 49/13/8 51/16/11 8/94/78
f 15/20/15 3/19/14 50/6/4 56/5/5
f 1/18/13 52/1/1 50/4/4 3/19/14
f 6/95/77 75/96/79 78/97/80 49/98/8
f 4/15/10 74/99/81 77/100/82 51/101/11
f 51/101/11 77/100/82 76/102/83 8/103/78
f 8/104/78 76/105/83 75/96/79 6/95/77
f 2/14/9 73/106/84 74/99/81 4/15/10
f 49/98/8 78/97/80 73/106/84 2/14/9
f 75/96/79 82/90/75 84/86/71 78/97/80
f 77/100/82 74/99/81 86/99/85 88/100/86
f 77/100/82 83/91/76 79/92/74 76/102/83
f 76/105/83 79/89/74 82/90/75 75/96/79
f 73/106/84 80/87/72 81/88/73 74/99/81
f 78/97/80 84/86/71 80/87/72 73/106/84
f 85/88/87 87/91/88 91/91/89 89/88/90
f 74/99/81 81/88/73 85/88/87 86/99/85
f 81/88/73 83/91/76 87/91/88 85/88/87
f 83/91/76 77/100/82 88/100/86 87/91/88
f 92/100/91 90/99/92 94/99/93 96/100/94
f 87/91/88 88/100/86 92/100/91 91/91/89
f 88/100/86 86/99/85 90/99/92 92/100/91
f 86/99/85 85/88/87 89/88/90 90/99/92
f 96/100/94 94/99/93 98/99/95 100/100/96
f 90/99/92 89/88/90 93/88/97 94/99/93
f 89/88/90 91/91/89 95/91/98 93/88/97
f 91/91/89 92/100/91 96/100/94 95/91/98
f 97/88/99 99/91/100 103/91/101 101/88/102
f 94/99/93 93/88/97 97/88/99 98/99/95
f 93/88/97 95/91/98 99/91/100 97/88/99
f 95/91/98 96/100/94 100/100/96 99/91/100
f 104/100/103 102/99/104 106/99/105 108/100/106
f 99/91/100 100/100/96 104/100/103 103/91/101
f 100/100/96 98/99/95 102/99/104 104/100/103
f 98/99/95 97/88/99 101/88/102 102/99/104
f 106/99/105 105/88/107 109/88/108 110/99/109
f 102/99/104 101/88/102 105/88/107 106/99/105
f 101/88/102 103/91/101 107/91/110 105/88/107
f 103/91/101 104/100/103 108/100/106 107/91/110
f 110/99/109 109/88/108 111/91/111 112/100/112
f 105/88/107 107/91/110 111/91/111 109/88/108
f 107/91/110 108/100/106 112/100/112 111/91/111
f 108/100/106 106/99/105 110/99/109 112/100/112
